# xmcd CD database file
#
# Track frame offsets:
#	150
#	13997
#	29171
#	47858
#	62538
#	77665
#	91592
#	107166
#	120883
#	133708
#	158435
#	172852
#	188779
#	207394
#
# Disc length: 2968 seconds
#
# Revision: 0
# Processed by: cddbd v1.5.1PL2 Copyright (c) Steve Scherf et al.
# Submitted via: CDex 1.51
#
DISCID=ae0b960e
DTITLE=Varius - JAZZ BALLADS
DYEAR=1900
DGENRE=Jazz
TTITLE0=Over The Rainbow
TTITLE1=Smoke Gets In Your Eyes
TTITLE2=Sweet Llrrane
TTITLE3=Angel Face
TTITLE4=Stairway To The Stars
TTITLE5=Body And Soul
TTITLE6=Blue Lester
TTITLE7=Celia
TTITLE8=It Might As Well Be Spring
TTITLE9=It's Only A Paper Moon
TTITLE10=Ruby My Dear
TTITLE11=Ghost Of A Chance
TTITLE12=Out Of Nowhere
TTITLE13=Moonlignt In Vermont
EXTD=
EXTT0=
EXTT1=
EXTT2=
EXTT3=
EXTT4=
EXTT5=
EXTT6=
EXTT7=
EXTT8=
EXTT9=
EXTT10=
EXTT11=
EXTT12=
EXTT13=
PLAYORDER=
